<svg width="17" height="20" viewBox="0 0 17 20" fill="none" xmlns="http://www.w3.org/2000/svg">
<path d="M8.59002 0.506226L0.731445 3.99892V9.23797C0.731445 14.0841 4.08444 18.6159 8.59002 19.7161C13.0956 18.6159 16.4486 14.0841 16.4486 9.23797V3.99892L8.59002 0.506226ZM8.59002 5.74527C9.81246 5.74527 11.0349 6.70576 11.0349 7.92821V9.23797C11.5588 9.23797 12.0827 9.76188 12.0827 10.3731V13.4292C12.0827 13.9531 11.5588 14.477 10.9476 14.477H6.14513C5.62122 14.477 5.09732 13.9531 5.09732 13.3419V10.2858C5.09732 9.76188 5.62122 9.23797 6.14513 9.23797V7.92821C6.14513 6.70576 7.36757 5.74527 8.59002 5.74527ZM8.59002 6.79308C7.89148 6.79308 7.28025 7.22967 7.28025 7.92821V9.23797H9.89978V7.92821C9.89978 7.22967 9.28856 6.79308 8.59002 6.79308Z" fill="#FF9F1C"/>
</svg>
