<svg width="24" height="24" viewBox="0 0 24 24" fill="none" xmlns="http://www.w3.org/2000/svg">
<path d="M18.0452 14.8138H5.07234L0.748047 19.1381V1.84096C0.748047 1.55424 0.861945 1.27927 1.06469 1.07653C1.26743 0.873786 1.5424 0.759888 1.82912 0.759888H18.0452C18.3319 0.759888 18.6069 0.873786 18.8097 1.07653C19.0124 1.27927 19.1263 1.55424 19.1263 1.84096V13.7328C19.1263 14.0195 19.0124 14.2945 18.8097 14.4972C18.6069 14.6999 18.3319 14.8138 18.0452 14.8138ZM23.4506 8.3274V23.4624L19.1263 19.1381H7.23449C6.94777 19.1381 6.67279 19.0242 6.47005 18.8215C6.26731 18.6188 6.15341 18.3438 6.15341 18.0571V16.976H21.2884V7.24633H22.3695C22.6562 7.24633 22.9312 7.36023 23.1339 7.56297C23.3367 7.76571 23.4506 8.04068 23.4506 8.3274ZM7.43989 2.92203C6.49936 2.92203 5.7426 3.13825 5.15883 3.55987C4.59667 4.00311 4.31559 4.61932 4.3264 5.47337L4.33721 5.5058H6.42368C6.43449 5.18148 6.53179 4.93283 6.72638 4.75986C6.92657 4.59385 7.17989 4.50558 7.43989 4.51121C7.77502 4.51121 8.0561 4.61932 8.25069 4.81391C8.44529 5.01932 8.53177 5.3004 8.53177 5.62472C8.53177 5.97066 8.4561 6.26255 8.28313 6.5112C8.13178 6.75984 7.90475 6.97606 7.62367 7.14903C7.07232 7.51659 6.69395 7.84092 6.48855 8.13281C6.27233 8.41389 6.15341 8.86794 6.15341 9.40847H8.31556C8.31556 9.07334 8.3588 8.80307 8.4561 8.60848C8.5534 8.41389 8.73718 8.21929 9.00745 8.04632C9.49393 7.78686 9.89393 7.47335 10.2074 7.04092C10.5209 6.60849 10.6831 6.16525 10.6831 5.62472C10.6831 4.8031 10.3912 4.14365 9.80744 3.65716C9.23447 3.17068 8.44529 2.92203 7.43989 2.92203ZM6.15341 10.4895V12.6517H8.31556V10.4895H6.15341ZM12.6399 12.6517H14.802V10.4895H12.6399V12.6517ZM12.6399 2.92203V9.40847H14.802V2.92203H12.6399Z" fill="#FF9F1C"/>
</svg>
