<svg width="20" height="20" viewBox="0 0 20 20" fill="none" xmlns="http://www.w3.org/2000/svg">
<path d="M7.96971 2.98898L7.95651 2.99018C5.95764 3.27832 4.12943 4.2764 2.80654 5.80174C2.05196 6.66748 1.48381 7.67927 1.13745 8.77406C0.791102 9.86886 0.673974 11.0232 0.793365 12.1652C1.00081 14.2062 1.94831 16.1008 3.45711 17.4915C4.96592 18.8822 6.93171 19.6729 8.98363 19.7143C11.0355 19.7558 13.0317 19.0453 14.5955 17.7167C16.1594 16.3881 17.1827 14.5334 17.4725 12.5024V12.4904C17.4984 12.3111 17.5184 12.131 17.5326 11.9504C17.5387 11.8681 17.5277 11.7854 17.5004 11.7075C17.473 11.6295 17.4299 11.5581 17.3737 11.4976C17.3175 11.4371 17.2493 11.3889 17.1736 11.3559C17.0979 11.323 17.0161 11.306 16.9335 11.306H10.9541C10.7176 11.306 10.4834 11.2595 10.265 11.169C10.0465 11.0786 9.84798 10.946 9.68077 10.7788C9.51357 10.6117 9.38093 10.4133 9.29043 10.1949C9.19994 9.97651 9.15336 9.74245 9.15336 9.50607V3.52897C9.15344 3.4463 9.13642 3.36449 9.10337 3.2887C9.07032 3.21291 9.02195 3.14476 8.96131 3.08854C8.90067 3.03231 8.82905 2.98922 8.75096 2.96197C8.67287 2.93472 8.58999 2.9239 8.50752 2.93018C8.32665 2.94458 8.14738 2.96418 7.96971 2.98898ZM19.9563 9.06928C19.9443 9.66687 19.4281 10.1061 18.8315 10.1061H11.5543C11.2359 10.1061 10.9306 9.97964 10.7054 9.7546C10.4803 9.52956 10.3538 9.22434 10.3538 8.90608V1.63181C10.3538 1.03422 10.7932 0.519425 11.391 0.507425L11.5543 0.506226C12.6716 0.506174 13.7777 0.728848 14.8078 1.16122C15.838 1.59359 16.7716 2.22698 17.5539 3.02433C18.3363 3.82168 18.9517 4.76698 19.3642 5.80493C19.7767 6.84288 19.978 7.95264 19.9563 9.06928Z" fill="#FF9F1C"/>
</svg>
