<svg width="264" height="81" viewBox="0 0 264 81" fill="none" xmlns="http://www.w3.org/2000/svg">
<path d="M1.25561 35.1152C2.514 29.6686 4.95676 24.6779 8.30339 20.4235C11.4786 25.6753 16.6485 30.066 21.8925 33.0698C22.9016 33.6464 25.7222 34.7295 26.3339 35.2399C26.4586 35.345 26.4936 35.4814 26.4742 35.6411C24.9547 37.8735 23.8678 40.4215 23.3223 43.1643C23.2795 43.3552 23.2327 43.546 23.1938 43.7408C23.1626 43.8967 23.1431 44.1188 23.1236 44.372C23.0574 44.8512 23.0068 45.3382 22.9756 45.8291C22.9211 46.1213 22.8431 46.3473 22.7224 46.4369C22.4029 46.6745 20.4666 47.3407 19.9523 47.4888C14.1902 49.1406 8.06575 48.6693 2.45167 46.8031C1.86338 46.6083 1.27508 46.3823 0.690689 46.168C0.433556 42.4396 0.612771 38.7268 1.25171 35.1152H1.25561Z" fill="#F0F0F0"/>
<path d="M50.244 55.8301C50.6881 55.0743 50.4699 54.4197 51.4167 54.2639C55.8308 53.5393 60.9111 55.7054 64.0863 58.8027C61.141 68.6595 53.2595 76.3813 43.3092 79.1046C43.4962 78.3682 43.8624 77.6709 44.0689 76.9501C45.4792 72.0178 45.113 66.6647 43.0637 61.9623C46.2584 60.778 48.5414 58.7209 50.244 55.8301Z" fill="#F0F0F0"/>
<path d="M62.4613 39.5645C62.5275 39.6774 62.5937 39.7904 62.6561 39.9034C62.7106 40.0008 62.7652 40.0943 62.8158 40.1917C64.4794 43.2851 65.4261 46.8226 65.4261 50.5784C65.4261 52.6004 65.1495 54.5522 64.6391 56.4106C61.9899 54.0808 58.6666 52.5302 55.1252 52.1484C54.5992 52.09 52.1331 52.1211 51.5643 51.9809C52.1721 50.6602 52.5149 49.1914 52.5149 47.6408C52.5149 45.011 51.537 42.615 49.928 40.7839C50.8279 39.6619 52.1409 38.31 52.6474 37.8658C54.2837 36.4282 56.3057 35.1075 58.4134 34.4919C58.4134 34.4919 58.4134 34.4919 58.4173 34.4958C60.077 36.0815 61.4133 37.7762 62.4613 39.5606V39.5645Z" fill="#F0F0F0"/>
<path d="M48.3305 39.3112C46.5968 38.0177 44.4502 37.2541 42.1243 37.2541C40.8269 37.2541 39.588 37.4918 38.4426 37.9281C36.9738 35.9529 35.8128 32.3998 36.1206 30.0622C36.1323 29.9882 36.1751 29.9141 36.2336 29.844C38.5088 29.0531 40.9516 28.6168 43.4957 28.6168C47.5085 28.6168 51.2681 29.6921 54.5095 31.5582C55.1602 31.9634 55.8069 32.4076 56.4419 32.8907C53.2005 34.2465 50.4616 36.5529 48.3305 39.3073V39.3112Z" fill="#F0F0F0"/>
<path d="M2.95443 49.3316C9.22693 51.229 16.8046 51.19 22.8901 48.6693L23.0381 49.3511C23.6693 52.425 25.2354 56.4145 28.6756 59.5001C28.3678 60.1507 26.9185 61.9467 26.8834 62.0052C26.8406 62.0714 21.3512 69.4815 17.3033 71.5815C16.4929 72.0022 15.6669 72.3762 14.8098 72.6723C12.8151 71.3204 10.9801 69.7465 9.33602 67.9933C6.23093 64.3778 3.79985 60.1663 2.24536 55.5496C1.56357 53.3406 1.07268 51.0225 0.768799 48.5875C1.5441 48.681 2.23757 49.1135 2.95833 49.3316H2.95443Z" fill="#F0F0F0"/>
<path d="M17.2717 74.0711C18.1016 73.6854 18.8418 73.1594 19.6171 72.6841C24.2767 69.8401 27.9233 65.3558 29.9258 60.3144L29.9648 60.182C33.1595 62.1339 37.184 62.9871 40.9007 62.4222C43.0902 67.1207 43.2734 72.4231 41.676 77.3164L41.0215 79.6306C39.1943 79.9774 37.3086 80.1644 35.3762 80.1644C28.57 80.1644 22.2975 77.893 17.2678 74.0711H17.2717Z" fill="#F0F0F0"/>
<path d="M30.3701 53.9483C31.1493 53.6717 32.1389 53.0211 32.8479 52.3276C34.5622 55.7132 38.0685 58.0351 42.1203 58.0351C43.2618 58.0351 44.3566 57.8481 45.3812 57.5092C42.0502 60.2714 33.1947 61.9233 27.2261 54.4275C28.2312 54.3807 29.4195 54.2833 30.3662 53.9483H30.3701Z" fill="#F0F0F0"/>
<path d="M31.3674 33.2452C32.1894 32.4699 33.0388 31.753 33.9348 31.0674C34.0244 34.0205 34.9906 36.5217 36.5101 38.8982C33.6348 40.7449 31.7297 43.9708 31.7297 47.6408C31.7297 48.5135 31.8388 49.3589 32.0414 50.1654C31.8349 50.4498 31.5544 50.7381 31.1609 51.0381C30.5181 51.5328 29.883 51.751 29.1311 51.9809C28.5779 52.1523 26.6455 52.5886 26.2208 52.3588C25.8 52.1328 25.1767 48.9654 25.091 48.2953C24.4092 42.8293 27.5143 36.8801 31.3635 33.2452H31.3674Z" fill="#F0F0F0"/>
<path d="M34.6714 47.7225C34.6714 51.7704 37.9557 55.0547 42.0036 55.0547C46.0515 55.0547 49.3358 51.7704 49.3358 47.7225C49.3358 43.6746 46.0515 40.3903 42.0036 40.3903C37.9557 40.3903 34.6714 43.6746 34.6714 47.7225ZM37.457 45.2135C38.1466 44.1421 39.1284 43.5382 39.6426 43.8732C40.1608 44.2044 40.0167 45.3459 39.3271 46.4173C38.6375 47.4887 37.6557 48.0926 37.1414 47.7575C36.6233 47.4264 36.7674 46.2849 37.457 45.2135Z" fill="#F0F0F0"/>
<path d="M33.0507 0.858032V29.4739C31.1417 30.6037 29.4313 32.0296 27.9821 33.6932C23.1666 31.9478 17.2681 27.522 13.9254 23.8676C12.2735 22.0638 10.2087 19.769 9.72168 17.4276C14.8721 10.1499 24.1952 3.19561 33.0546 0.861932L33.0507 0.858032Z" fill="#F0F0F0"/>
<path d="M128.656 41.064C127.861 39.4901 126.805 38.3213 125.496 37.5577C124.187 36.798 122.749 36.4162 121.195 36.4162C119.033 36.4162 117.244 36.9226 115.83 37.9317C114.638 38.781 113.707 39.8524 113.033 41.1381L112.593 37.0551H104.251V64.4671H113.228V48.8482C113.228 47.9989 113.395 47.2119 113.734 46.4833C114.069 45.7587 114.556 45.1743 115.195 44.7302C115.834 44.286 116.594 44.0678 117.478 44.0678C118.542 44.0678 119.356 44.3873 119.921 45.0224C120.486 45.6613 120.805 46.5613 120.876 47.7301C120.911 47.9093 120.93 48.1196 120.93 48.369V64.4632H129.856V46.9314C129.856 44.5938 129.458 42.638 128.66 41.0601L128.656 41.064Z" fill="#F0F0F0"/>
<path d="M153.73 56.9207C151.993 57.17 150.789 57.2947 150.119 57.2947C149.48 57.2947 148.942 57.17 148.498 56.9207C148.054 56.6752 147.711 56.2934 147.462 55.7792C147.212 55.2649 147.091 54.6182 147.091 53.839V44.3835H155.218V37.0513H147.091V25.6283L138.38 31.258V37.0474H133.015V44.3796H138.38V54.3143C138.38 56.7921 138.875 58.8102 139.868 60.3686C140.858 61.927 142.109 63.0529 143.612 63.7425C145.116 64.4321 146.702 64.7788 148.365 64.7788C149.32 64.7788 150.197 64.7438 150.995 64.6736C151.794 64.6035 152.511 64.4944 153.146 64.3542L155.589 56.6518C154.985 56.722 154.365 56.8116 153.73 56.9168V56.9207Z" fill="#F0F0F0"/>
<path d="M90.3938 31.2619V38.1694H90.3821V64.4633H99.2532V53.839V38.3292V25.6322L90.3938 31.2619Z" fill="#F0F0F0"/>
<path d="M184.306 47.2509C184.201 45.338 183.624 43.5498 182.58 41.8862C181.536 40.2226 180.102 38.8941 178.279 37.9006C176.456 36.911 174.41 36.4124 172.143 36.4124C169.237 36.4124 166.716 37.0513 164.573 38.3253C162.43 39.5993 160.794 41.3252 159.66 43.503C158.527 45.6809 157.962 48.0963 157.962 50.7534C157.962 53.5507 158.562 56.0402 159.769 58.2181C160.973 60.3959 162.707 62.0867 164.974 63.2906C167.242 64.4944 169.95 65.0983 173.101 65.0983C174.625 65.0983 176.148 64.9035 177.671 64.5139C179.195 64.1243 180.523 63.575 181.657 62.8659L182.187 55.2182C180.839 56.1415 179.452 56.8194 178.018 57.2635C176.584 57.7077 175.104 57.9259 173.581 57.9259C172.057 57.9259 170.729 57.6804 169.704 57.1817C168.676 56.6869 167.908 56.0402 167.394 55.2415C166.996 54.626 166.735 53.9598 166.603 53.2507H184.314V47.247L184.306 47.2509ZM168.983 43.8264C169.813 43.3472 170.779 43.1095 171.878 43.1095C172.762 43.1095 173.577 43.2965 174.321 43.6666C175.065 44.0367 175.657 44.5627 176.101 45.2328C176.545 45.9068 176.764 46.686 176.764 47.5704H166.482C166.587 46.8964 166.79 46.273 167.094 45.712C167.518 44.9328 168.146 44.3056 168.979 43.8264H168.983Z" fill="#F0F0F0"/>
<path d="M206.603 37.0551L206.182 39.6576C205.858 39.2252 205.512 38.8317 205.142 38.4888C204.452 37.8499 203.61 37.3473 202.617 36.9733C201.624 36.6032 200.474 36.4162 199.165 36.4162C197.182 36.4162 195.277 36.9655 193.454 38.0642C191.63 39.1628 190.15 40.7485 189.016 42.8172C187.883 44.8899 187.318 47.2703 187.318 49.9624C187.318 52.4052 187.777 54.6376 188.697 56.6557C189.616 58.6738 190.953 60.2673 192.706 61.436C194.459 62.6048 196.504 63.1892 198.842 63.1892C200.65 63.1892 202.204 62.7568 203.517 61.888C204.3 61.3698 205.009 60.7231 205.64 59.9556V61.7555C205.64 63.7386 205.064 65.2151 203.914 66.193C202.761 67.167 201.23 67.654 199.321 67.654C197.587 67.654 195.955 67.3073 194.436 66.6177C192.912 65.9281 191.443 64.8372 190.025 63.349V71.6357C191.299 72.6642 192.788 73.4239 194.486 73.9187C196.185 74.4135 198.008 74.6628 199.956 74.6628C202.718 74.6628 205.134 74.1213 207.206 73.0421C209.279 71.9629 210.908 70.4045 212.092 68.367C213.276 66.3294 213.872 63.9139 213.872 61.1166V37.0512H206.595L206.603 37.0551ZM203.599 55.6466C202.835 56.1064 201.959 56.3362 200.969 56.3362C199.979 56.3362 199.161 56.0791 198.421 55.5648C197.677 55.0506 197.093 54.3259 196.668 53.387C196.243 52.4481 196.029 51.3611 196.029 50.1183C196.029 48.8754 196.239 47.7378 196.668 46.7989C197.093 45.86 197.677 45.1431 198.421 44.6483C199.165 44.1536 200.015 43.9042 200.969 43.9042C201.994 43.9042 202.89 44.1419 203.653 44.6211C204.413 45.1003 204.997 45.7899 205.407 46.6937C205.812 47.5976 206.018 48.6495 206.018 49.8533V50.278C206.018 51.5871 205.808 52.6935 205.379 53.5974C204.955 54.5012 204.362 55.183 203.599 55.6428V55.6466Z" fill="#F0F0F0"/>
<path d="M237.092 37.0551C236.952 36.985 236.792 36.9304 236.613 36.8954C236.223 36.7551 235.834 36.6655 235.444 36.6305C235.054 36.5954 234.649 36.5759 234.221 36.5759C232.343 36.5759 230.796 37.1876 229.573 38.407C228.677 39.3031 227.94 40.394 227.36 41.6757L226.729 37.0512H218.867V64.4632H227.683V51.6611C227.683 50.2819 227.905 49.1014 228.346 48.1274C228.79 47.1535 229.444 46.4093 230.313 45.8951C231.182 45.3808 232.214 45.1237 233.422 45.1237C234.061 45.1237 234.68 45.1704 235.28 45.2561C235.88 45.3457 236.519 45.4938 237.193 45.7081C237.548 45.7782 237.883 45.9028 238.202 46.0821L237.088 37.0512L237.092 37.0551Z" fill="#F0F0F0"/>
<path d="M262.28 41.2238C261.216 39.6109 259.763 38.407 257.924 37.6122C256.081 36.8136 253.993 36.4162 251.655 36.4162C249.318 36.4162 247.44 36.7707 245.706 37.4798C243.969 38.1888 242.605 39.1083 241.616 40.242L240.817 48.1586C242.445 46.6353 244.066 45.5132 245.679 44.7847C247.292 44.06 249.018 43.6977 250.857 43.6977C252.271 43.6977 253.452 44.025 254.39 44.6795C255.267 45.2912 255.727 46.1756 255.785 47.3249C254.901 47.4301 253.58 47.6171 251.811 47.8937C251.207 47.9989 250.732 48.0807 250.378 48.1313C250.023 48.1859 249.563 48.2638 248.998 48.369C247.3 48.7235 245.784 49.2884 244.456 50.0676C243.127 50.8468 242.083 51.8286 241.323 53.0169C240.56 54.2051 240.182 55.5765 240.182 57.1349C240.182 58.6933 240.536 59.975 241.245 61.1984C241.955 62.4217 242.952 63.3762 244.245 64.0658C245.539 64.7554 247.05 65.1021 248.788 65.1021C250.417 65.1021 251.843 64.7476 253.066 64.0385C254.168 63.3996 255.1 62.4763 255.855 61.2724L255.961 64.4632H263.877V47.0911C263.877 44.7886 263.347 42.8328 262.284 41.2199L262.28 41.2238ZM253.3 58.3543C252.591 58.7089 251.881 58.8842 251.176 58.8842C250.397 58.8842 249.723 58.6738 249.158 58.2453C248.589 57.8206 248.309 57.2011 248.309 56.3869C248.309 55.5726 248.617 54.9454 249.24 54.5012C249.859 54.0571 250.756 53.6597 251.924 53.3052C252.524 53.1649 253.074 53.0402 253.572 52.9312C254.067 52.826 254.671 52.6857 255.38 52.5065C255.575 52.4753 255.715 52.4519 255.805 52.4325V54.5246C255.805 55.409 255.567 56.1804 255.088 56.8349C254.609 57.4894 254.016 57.9959 253.307 58.3504L253.3 58.3543Z" fill="#F0F0F0"/>
</svg>
