<svg width="129" height="129" viewBox="0 0 129 129" fill="none" xmlns="http://www.w3.org/2000/svg">
<rect width="129" height="129" rx="64.5" fill="#FF9F1C"/>
<path d="M34.1974 53.6818V75.5H28.9347V58.6037H28.8068L23.9276 61.5866V57.027L29.3075 53.6818H34.1974ZM47.8192 76.0327C45.9158 76.0327 44.2752 75.5817 42.8973 74.6797C41.5195 73.7706 40.4577 72.4673 39.712 70.7699C38.9662 69.0653 38.5969 67.0163 38.604 64.6229C38.6111 62.2294 38.984 60.1982 39.7226 58.5291C40.4684 56.853 41.5266 55.5781 42.8973 54.7045C44.2752 53.8239 45.9158 53.3835 47.8192 53.3835C49.7226 53.3835 51.3632 53.8239 52.7411 54.7045C54.126 55.5781 55.1914 56.853 55.9371 58.5291C56.6828 60.2053 57.0522 62.2365 57.0451 64.6229C57.0451 67.0234 56.6722 69.076 55.9265 70.7805C55.1807 72.4851 54.1189 73.7884 52.7411 74.6903C51.3703 75.5852 49.7297 76.0327 47.8192 76.0327ZM47.8192 71.718C48.9556 71.718 49.8753 71.1392 50.5784 69.9815C51.2816 68.8168 51.6296 67.0305 51.6225 64.6229C51.6225 63.0462 51.4627 61.7464 51.1431 60.7237C50.8235 59.6939 50.3796 58.9268 49.8114 58.4226C49.2432 57.9183 48.5792 57.6662 47.8192 57.6662C46.6899 57.6662 45.7773 58.2379 45.0813 59.3814C44.3853 60.5178 44.0337 62.2649 44.0266 64.6229C44.0195 66.2209 44.1722 67.5455 44.4847 68.5966C44.8043 69.6477 45.2517 70.4325 45.827 70.951C46.4023 71.4624 47.0664 71.718 47.8192 71.718ZM68.8637 76.0327C66.9603 76.0327 65.3197 75.5817 63.9419 74.6797C62.564 73.7706 61.5022 72.4673 60.7565 70.7699C60.0108 69.0653 59.6414 67.0163 59.6485 64.6229C59.6556 62.2294 60.0285 60.1982 60.7672 58.5291C61.5129 56.853 62.5711 55.5781 63.9419 54.7045C65.3197 53.8239 66.9603 53.3835 68.8637 53.3835C70.7672 53.3835 72.4078 53.8239 73.7856 54.7045C75.1706 55.5781 76.2359 56.853 76.9816 58.5291C77.7274 60.2053 78.0967 62.2365 78.0896 64.6229C78.0896 67.0234 77.7167 69.076 76.971 70.7805C76.2252 72.4851 75.1635 73.7884 73.7856 74.6903C72.4149 75.5852 70.7743 76.0327 68.8637 76.0327ZM68.8637 71.718C70.0001 71.718 70.9199 71.1392 71.623 69.9815C72.3261 68.8168 72.6741 67.0305 72.667 64.6229C72.667 63.0462 72.5072 61.7464 72.1876 60.7237C71.868 59.6939 71.4241 58.9268 70.8559 58.4226C70.2877 57.9183 69.6237 57.6662 68.8637 57.6662C67.7345 57.6662 66.8218 58.2379 66.1258 59.3814C65.4298 60.5178 65.0782 62.2649 65.0711 64.6229C65.064 66.2209 65.2167 67.5455 65.5292 68.5966C65.8488 69.6477 66.2963 70.4325 66.8716 70.951C67.4468 71.4624 68.1109 71.718 68.8637 71.718ZM93.1043 71.4091V70.2585C93.1043 69.3636 93.2961 68.5362 93.6796 67.7763C94.0702 67.0163 94.6348 66.4055 95.3735 65.9439C96.1121 65.4822 97.0141 65.2514 98.0794 65.2514C99.1661 65.2514 100.079 65.4822 100.817 65.9439C101.563 66.3984 102.124 67.0057 102.501 67.7656C102.884 68.5185 103.076 69.3494 103.076 70.2585V71.4091C103.076 72.304 102.884 73.1314 102.501 73.8913C102.117 74.6513 101.552 75.2621 100.807 75.7237C100.061 76.1854 99.1519 76.4162 98.0794 76.4162C96.9999 76.4162 96.0908 76.1854 95.3522 75.7237C94.6135 75.2621 94.0525 74.6513 93.6689 73.8913C93.2925 73.1314 93.1043 72.304 93.1043 71.4091ZM96.5027 70.2585V71.4091C96.5027 71.8636 96.6128 72.3004 96.833 72.7195C97.0603 73.1385 97.4757 73.348 98.0794 73.348C98.6973 73.348 99.1128 73.1456 99.3259 72.7408C99.539 72.3288 99.6455 71.8849 99.6455 71.4091V70.2585C99.6455 69.7827 99.5425 69.3352 99.3365 68.9162C99.1377 68.4901 98.7186 68.277 98.0794 68.277C97.4828 68.277 97.0709 68.4901 96.8436 68.9162C96.6164 69.3352 96.5027 69.7827 96.5027 70.2585ZM81.7904 58.9233V57.7727C81.7904 56.8636 81.9857 56.0327 82.3763 55.2798C82.774 54.5199 83.3422 53.9126 84.0809 53.4581C84.8195 52.9964 85.7144 52.7656 86.7655 52.7656C87.8522 52.7656 88.7648 52.9964 89.5034 53.4581C90.2492 53.9126 90.8138 54.5199 91.1973 55.2798C91.5809 56.0327 91.7726 56.8636 91.7726 57.7727V58.9233C91.7726 59.8324 91.5773 60.6634 91.1867 61.4162C90.8032 62.169 90.2385 62.7692 89.4928 63.2166C88.7471 63.6641 87.838 63.8878 86.7655 63.8878C85.6931 63.8878 84.784 63.6605 84.0382 63.206C83.2996 62.7514 82.7385 62.1477 82.355 61.3949C81.9786 60.642 81.7904 59.8182 81.7904 58.9233ZM85.2208 57.7727V58.9233C85.2208 59.3991 85.3309 59.843 85.551 60.255C85.7783 60.6598 86.1831 60.8622 86.7655 60.8622C87.3905 60.8622 87.806 60.6598 88.012 60.255C88.225 59.843 88.3316 59.3991 88.3316 58.9233V57.7727C88.3316 57.2969 88.2321 56.8494 88.0333 56.4304C87.8344 56.0043 87.4118 55.7912 86.7655 55.7912C86.1689 55.7912 85.7605 56.0078 85.5404 56.4411C85.3273 56.8743 85.2208 57.3182 85.2208 57.7727ZM83.399 75.5L98.399 53.6818H101.307L86.3074 75.5H83.399Z" fill="#F0F0F0"/>
</svg>
