<svg width="24" height="20" viewBox="0 0 24 20" fill="none" xmlns="http://www.w3.org/2000/svg">
<path d="M16.7599 19.5529L16.4168 17.8579C16.1881 17.7637 15.9738 17.665 15.774 17.5618C15.5743 17.4586 15.3692 17.3313 15.1587 17.1799L13.5004 17.6884L12.3566 15.7674L13.6719 14.6374C13.6338 14.3737 13.6147 14.1289 13.6147 13.9029C13.6147 13.6769 13.6338 13.4321 13.6719 13.1684L12.3566 12.0384L13.5004 10.1174L15.1587 10.6259C15.3684 10.4753 15.5735 10.3483 15.774 10.2451C15.9746 10.1419 16.1888 10.0429 16.4168 9.94794L16.7599 8.25295H19.0473L19.3904 9.94794C19.6192 10.0421 19.8338 10.1457 20.0343 10.2587C20.2349 10.3717 20.4396 10.5129 20.6485 10.6824L22.3069 10.1174L23.4506 12.0949L22.1353 13.2249C22.1734 13.4509 22.1925 13.6863 22.1925 13.9312C22.1925 14.176 22.1734 14.4114 22.1353 14.6374L23.4506 15.7674L22.3069 17.6884L20.6485 17.1799C20.4388 17.3305 20.2341 17.4579 20.0343 17.5618C19.8346 17.6658 19.6199 17.7645 19.3904 17.8579L19.0473 19.5529H16.7599ZM0.748047 18.4229V15.2589C0.748047 14.6374 0.910072 14.0536 1.23412 13.5074C1.55817 12.9612 2.00612 12.5469 2.57797 12.2644C3.55012 11.7748 4.64617 11.3604 5.86613 11.0214C7.08608 10.6824 8.42993 10.5129 9.89768 10.5129H10.298C10.4124 10.5129 10.5267 10.5318 10.6411 10.5694C10.0883 11.9254 9.85956 13.272 9.95487 14.6091C10.0502 15.9463 10.5077 17.2175 11.3273 18.4229H0.748047ZM17.9036 16.1629C18.5327 16.1629 19.0713 15.9418 19.5197 15.4996C19.968 15.0574 20.1918 14.5252 20.191 13.9029C20.1903 13.2807 19.9665 12.7488 19.5197 12.3074C19.0729 11.8659 18.5342 11.6444 17.9036 11.6429C17.2731 11.6414 16.7348 11.8629 16.2887 12.3074C15.8427 12.7518 15.6185 13.2837 15.6162 13.9029C15.6139 14.5221 15.8381 15.0544 16.2887 15.4996C16.7393 15.9448 17.2776 16.1659 17.9036 16.1629ZM9.89768 9.38294C8.63961 9.38294 7.56262 8.94036 6.66672 8.0552C5.77082 7.17004 5.32287 6.10597 5.32287 4.86298C5.32287 3.61999 5.77082 2.55592 6.66672 1.67076C7.56262 0.785597 8.63961 0.343018 9.89768 0.343018C11.1558 0.343018 12.2327 0.785597 13.1286 1.67076C14.0246 2.55592 14.4725 3.61999 14.4725 4.86298C14.4725 6.10597 14.0246 7.17004 13.1286 8.0552C12.2327 8.94036 11.1558 9.38294 9.89768 9.38294Z" fill="#FF9F1C"/>
</svg>
