<svg width="20" height="16" viewBox="0 0 20 16" fill="none" xmlns="http://www.w3.org/2000/svg">
<path d="M11.2261 14.9334V13.4926C11.2261 13.3762 11.248 13.2636 11.2916 13.1547C11.3353 13.0459 11.4008 12.9475 11.4881 12.8596L16.0504 8.31909C16.1814 8.18811 16.3269 8.09352 16.487 8.0353C16.6471 7.97709 16.8072 7.94799 16.9673 7.94799C17.1419 7.94799 17.3093 7.98088 17.4693 8.04666C17.6294 8.11243 17.7749 8.21052 17.9059 8.34092L18.7136 9.1486C18.83 9.27958 18.9211 9.42511 18.9869 9.58519C19.0527 9.74527 19.0853 9.90535 19.0847 10.0654C19.0841 10.2255 19.055 10.3894 18.9974 10.557C18.9398 10.7247 18.8452 10.8737 18.7136 11.0041L14.1731 15.5446C14.0858 15.6319 13.9877 15.6974 13.8788 15.7411C13.77 15.7847 13.6571 15.8066 13.5401 15.8066H12.0993C11.8519 15.8066 11.6447 15.723 11.4776 15.556C11.3105 15.3889 11.2267 15.1814 11.2261 14.9334ZM16.9673 10.9168L17.7749 10.0654L16.9673 9.25775L16.1377 10.0873L16.9673 10.9168ZM2.4944 14.0602C2.01415 14.0602 1.60318 13.8894 1.26147 13.5477C0.919771 13.206 0.748629 12.7947 0.748047 12.3139V1.83577C0.748047 1.35552 0.919189 0.944545 1.26147 0.602843C1.60376 0.261141 2.01473 0.0899986 2.4944 0.0894165H7.01307C7.24592 0.0894165 7.468 0.133075 7.67931 0.220393C7.89061 0.30771 8.07602 0.43141 8.23552 0.591492L9.47979 1.83577H16.4652C16.9454 1.83577 17.3567 2.00691 17.699 2.34919C18.0413 2.69148 18.2121 3.10245 18.2115 3.58211V5.39395C18.2115 5.6559 18.1059 5.86692 17.8946 6.027C17.6833 6.18709 17.4396 6.2453 17.1637 6.20164H16.9236C16.5161 6.20164 16.1343 6.2744 15.778 6.41993C15.4217 6.56546 15.0978 6.78375 14.8062 7.07481L9.98187 11.8991C9.82178 12.0592 9.69808 12.2449 9.61077 12.4562C9.52345 12.6675 9.47979 12.8893 9.47979 13.1215V13.187C9.47979 13.4344 9.39597 13.642 9.22832 13.8096C9.06067 13.9773 8.85343 14.0608 8.60662 14.0602H2.4944Z" fill="#FF9F1C"/>
</svg>
