<svg width="40" height="40" viewBox="0 0 40 40" fill="none" xmlns="http://www.w3.org/2000/svg">
<rect width="40" height="40" rx="20" fill="#020F76"/>
<g clip-path="url(#clip0_720_7436)">
<path d="M24.3656 23.4727L25.5878 22.2227C25.7788 22.0273 26.1111 22.1641 26.1111 22.4453V28.125C26.1111 29.1602 25.2899 30 24.2778 30H10.8333C9.82118 30 9 29.1602 9 28.125V14.375C9 13.3398 9.82118 12.5 10.8333 12.5H21.2795C21.5507 12.5 21.6882 12.8359 21.4972 13.0352L20.275 14.2852C20.2177 14.3438 20.1413 14.375 20.0573 14.375H10.8333V28.125H24.2778V23.6914C24.2778 23.6094 24.3083 23.5313 24.3656 23.4727ZM30.3469 15.5898L20.317 25.8477L16.8642 26.2383C15.8635 26.3516 15.0118 25.4883 15.1226 24.457L15.5045 20.9258L25.5344 10.668C26.409 9.77344 27.8222 9.77344 28.6931 10.668L30.3431 12.3555C31.2177 13.25 31.2177 14.6992 30.3469 15.5898ZM26.5733 16.7969L24.3542 14.5273L17.2576 21.7891L16.9788 24.3398L19.4729 24.0547L26.5733 16.7969ZM29.0483 13.6836L27.3983 11.9961C27.2417 11.8359 26.9858 11.8359 26.833 11.9961L25.6528 13.2031L27.8719 15.4727L29.0521 14.2656C29.2049 14.1016 29.2049 13.8438 29.0483 13.6836Z" fill="white"/>
</g>
<defs>
<clipPath id="clip0_720_7436">
<rect width="22" height="20" fill="white" transform="translate(9 10)"/>
</clipPath>
</defs>
</svg>
