<svg width="32" height="33" viewBox="0 0 32 33" fill="none" xmlns="http://www.w3.org/2000/svg">
<rect width="32" height="33" rx="5.69143" fill="#020F76"/>
<path d="M16 13.7C16.7956 13.7 17.5587 13.995 18.1213 14.5201C18.6839 15.0452 19 15.7574 19 16.5C19 17.2426 18.6839 17.9548 18.1213 18.4799C17.5587 19.005 16.7956 19.3 16 19.3C15.2044 19.3 14.4413 19.005 13.8787 18.4799C13.3161 17.9548 13 17.2426 13 16.5C13 15.7574 13.3161 15.0452 13.8787 14.5201C14.4413 13.995 15.2044 13.7 16 13.7ZM16 9.5C21 9.5 25.27 12.4027 27 16.5C25.27 20.5973 21 23.5 16 23.5C11 23.5 6.73 20.5973 5 16.5C6.73 12.4027 11 9.5 16 9.5ZM7.18 16.5C7.98825 18.0403 9.24331 19.338 10.8025 20.2457C12.3617 21.1534 14.1624 21.6346 16 21.6346C17.8376 21.6346 19.6383 21.1534 21.1975 20.2457C22.7567 19.338 24.0117 18.0403 24.82 16.5C24.0117 14.9597 22.7567 13.662 21.1975 12.7543C19.6383 11.8466 17.8376 11.3654 16 11.3654C14.1624 11.3654 12.3617 11.8466 10.8025 12.7543C9.24331 13.662 7.98825 14.9597 7.18 16.5Z" fill="white"/>
</svg>
