<svg width="11" height="12" viewBox="0 0 11 12" fill="none" xmlns="http://www.w3.org/2000/svg">
<path d="M2.99737 10.1116V5.37766H3.79667C3.85495 5.37766 3.91323 5.3843 3.97152 5.39759C4.0298 5.41088 4.08808 5.42609 4.14636 5.44323L7.60583 6.79392C7.72239 6.83763 7.81614 6.91631 7.88708 7.02996C7.95802 7.14361 7.99332 7.26163 7.99299 7.38402C7.99299 7.56761 7.93254 7.71623 7.81165 7.82988C7.69075 7.94353 7.55138 8.00036 7.39351 8.00036H6.08216C6.04053 8.00036 6.00939 7.99826 5.98875 7.99406C5.9681 7.98987 5.94095 7.97885 5.90732 7.96102L5.10802 7.63318L4.94566 8.14461L5.90732 8.49867C5.92397 8.50741 5.94895 8.51406 5.98225 8.5186C6.01556 8.52315 6.0447 8.52525 6.06967 8.5249H9.49167C9.75811 8.5249 9.99123 8.62543 10.1911 8.82651C10.3909 9.02758 10.4908 9.27674 10.4908 9.57398L6.50679 11.1476L2.99737 10.1116ZM0 11.1476V5.37766H1.99825V11.1476H0ZM7.49343 6.42674L5.42024 4.30235C5.16214 4.04008 4.94366 3.74949 4.76482 3.43057C4.58598 3.11165 4.49639 2.76405 4.49606 2.38778C4.49606 1.90695 4.65641 1.49834 4.97713 1.16193C5.29785 0.825528 5.68701 0.657151 6.14461 0.656801C6.41104 0.656801 6.66082 0.715899 6.89395 0.834095C7.12708 0.952292 7.32691 1.11175 7.49343 1.31248C7.65995 1.1114 7.85977 0.951767 8.0929 0.833571C8.32603 0.715374 8.57581 0.656451 8.84224 0.656801C9.30017 0.656801 9.6895 0.825178 10.0102 1.16193C10.3309 1.49869 10.4911 1.9073 10.4908 2.38778C10.4908 2.7637 10.4034 3.1113 10.2285 3.43057C10.0537 3.74984 9.8372 4.04043 9.5791 4.30235L7.49343 6.42674Z" fill="#0E39F7"/>
</svg>
