<svg width="12" height="13" viewBox="0 0 12 13" fill="none" xmlns="http://www.w3.org/2000/svg">
<mask id="mask0_3044_5227" style="mask-type:luminance" maskUnits="userSpaceOnUse" x="0" y="0" width="12" height="13">
<path d="M6.24531 11.6568C6.24531 11.6568 10.6447 8.78166 10.6447 5.45777C10.6447 3.08752 8.67512 1.16602 6.24531 1.16602C3.81551 1.16602 1.84595 3.08752 1.84595 5.45777C1.84595 8.78166 6.24531 11.6568 6.24531 11.6568Z" fill="white" stroke="white" stroke-width="1.74847" stroke-linejoin="round"/>
<path d="M6.24602 7.25742C6.69478 7.25742 7.12517 7.07915 7.44249 6.76183C7.75981 6.4445 7.93808 6.01412 7.93808 5.56536C7.93808 5.11659 7.75981 4.68621 7.44249 4.36889C7.12517 4.05156 6.69478 3.87329 6.24602 3.87329C5.79726 3.87329 5.36687 4.05156 5.04955 4.36889C4.73223 4.68621 4.55396 5.11659 4.55396 5.56536C4.55396 6.01412 4.73223 6.4445 5.04955 6.76183C5.36687 7.07915 5.79726 7.25742 6.24602 7.25742Z" fill="black" stroke="black" stroke-width="1.74847" stroke-linejoin="round"/>
</mask>
<g mask="url(#mask0_3044_5227)">
<path d="M0.845947 0.166016H11.8459V13.166H0.845947V0.166016Z" fill="#0E39F7"/>
</g>
</svg>
