<svg width="32" height="33" viewBox="0 0 32 33" fill="none" xmlns="http://www.w3.org/2000/svg">
<rect width="32" height="33" rx="5.69143" fill="#0E39F7"/>
<path d="M13.556 19.6625L22.031 11.1875C22.231 10.9875 22.4644 10.8875 22.731 10.8875C22.9977 10.8875 23.231 10.9875 23.431 11.1875C23.631 11.3875 23.731 11.6252 23.731 11.9005C23.731 12.1758 23.631 12.4132 23.431 12.6125L14.256 21.8125C14.056 22.0125 13.8227 22.1125 13.556 22.1125C13.2894 22.1125 13.056 22.0125 12.856 21.8125L8.55604 17.5125C8.35604 17.3125 8.26004 17.0752 8.26804 16.8005C8.27604 16.5258 8.38037 16.2882 8.58104 16.0875C8.78171 15.8868 9.01937 15.7868 9.29404 15.7875C9.56871 15.7882 9.80604 15.8882 10.006 16.0875L13.556 19.6625Z" fill="white"/>
</svg>
