<svg width="29" height="29" viewBox="0 0 29 29" fill="none" xmlns="http://www.w3.org/2000/svg">
<rect x="0.713867" y="0.0571289" width="28.2286" height="28.2286" rx="5.64571" fill="white"/>
<path d="M11.3007 20.5229C10.9126 20.5229 10.5804 20.3848 10.3043 20.1087C10.0281 19.8325 9.88978 19.5001 9.88931 19.1115V9.93721C9.68936 9.93721 9.52187 9.86946 9.38684 9.73397C9.25182 9.59847 9.18407 9.43098 9.1836 9.2315C9.18313 9.03202 9.25087 8.86453 9.38684 8.72903C9.52281 8.59353 9.6903 8.52578 9.88931 8.52578H12.7122C12.7122 8.32583 12.7799 8.15834 12.9154 8.02331C13.0509 7.88829 13.2184 7.82054 13.4179 7.82007H16.2407C16.4407 7.82007 16.6084 7.88782 16.7439 8.02331C16.8794 8.15881 16.9469 8.3263 16.9465 8.52578H19.7693C19.9693 8.52578 20.137 8.59353 20.2725 8.72903C20.408 8.86453 20.4755 9.03202 20.475 9.2315C20.4746 9.43098 20.4068 9.5987 20.2718 9.73467C20.1368 9.87064 19.9693 9.93815 19.7693 9.93721V19.1115C19.7693 19.4996 19.6312 19.832 19.3551 20.1087C19.0789 20.3853 18.7465 20.5234 18.3579 20.5229H11.3007ZM18.3579 9.93721H11.3007V19.1115H18.3579V9.93721ZM13.4179 17.7001C13.6178 17.7001 13.7856 17.6323 13.9211 17.4968C14.0566 17.3613 14.1241 17.1938 14.1236 16.9944V12.0544C14.1236 11.8544 14.0558 11.6869 13.9204 11.5519C13.7849 11.4169 13.6174 11.3491 13.4179 11.3486C13.2184 11.3482 13.0509 11.4159 12.9154 11.5519C12.7799 11.6879 12.7122 11.8553 12.7122 12.0544V16.9944C12.7122 17.1943 12.7799 17.362 12.9154 17.4975C13.0509 17.633 13.2184 17.7005 13.4179 17.7001ZM16.2407 17.7001C16.4407 17.7001 16.6084 17.6323 16.7439 17.4968C16.8794 17.3613 16.9469 17.1938 16.9465 16.9944V12.0544C16.9465 11.8544 16.8787 11.6869 16.7432 11.5519C16.6077 11.4169 16.4402 11.3491 16.2407 11.3486C16.0413 11.3482 15.8738 11.4159 15.7383 11.5519C15.6028 11.6879 15.535 11.8553 15.535 12.0544V16.9944C15.535 17.1943 15.6028 17.362 15.7383 17.4975C15.8738 17.633 16.0413 17.7005 16.2407 17.7001Z" fill="#020F76"/>
</svg>
