<svg width="32" height="33" viewBox="0 0 32 33" fill="none" xmlns="http://www.w3.org/2000/svg">
<rect width="32" height="33" rx="5.69143" fill="#020F76"/>
<path d="M12.4429 22.9028C12.0516 22.9028 11.7168 22.7636 11.4383 22.4852C11.1599 22.2068 11.0205 21.8717 11.02 21.48V12.2314C10.8185 12.2314 10.6496 12.1631 10.5135 12.0265C10.3774 11.8899 10.3091 11.7211 10.3086 11.52C10.3081 11.3189 10.3764 11.15 10.5135 11.0134C10.6506 10.8768 10.8194 10.8085 11.02 10.8085H13.8657C13.8657 10.607 13.934 10.4381 14.0706 10.302C14.2072 10.1659 14.3761 10.0976 14.5772 10.0971H17.4229C17.6245 10.0971 17.7935 10.1654 17.9301 10.302C18.0667 10.4386 18.1348 10.6074 18.1343 10.8085H20.98C21.1816 10.8085 21.3507 10.8768 21.4873 11.0134C21.6239 11.15 21.6919 11.3189 21.6915 11.52C21.691 11.7211 21.6227 11.8901 21.4866 12.0272C21.3504 12.1643 21.1816 12.2323 20.98 12.2314V21.48C20.98 21.8713 20.8408 22.2063 20.5624 22.4852C20.284 22.7641 19.9489 22.9033 19.5572 22.9028H12.4429ZM19.5572 12.2314H12.4429V21.48H19.5572V12.2314ZM14.5772 20.0571C14.7787 20.0571 14.9478 19.9888 15.0844 19.8522C15.221 19.7156 15.2891 19.5468 15.2886 19.3457V14.3657C15.2886 14.1641 15.2203 13.9953 15.0837 13.8591C14.9471 13.723 14.7783 13.6547 14.5772 13.6542C14.3761 13.6538 14.2072 13.7221 14.0706 13.8591C13.934 13.9962 13.8657 14.1651 13.8657 14.3657V19.3457C13.8657 19.5472 13.934 19.7163 14.0706 19.8529C14.2072 19.9895 14.3761 20.0576 14.5772 20.0571ZM17.4229 20.0571C17.6245 20.0571 17.7935 19.9888 17.9301 19.8522C18.0667 19.7156 18.1348 19.5468 18.1343 19.3457V14.3657C18.1343 14.1641 18.066 13.9953 17.9294 13.8591C17.7928 13.723 17.624 13.6547 17.4229 13.6542C17.2218 13.6538 17.0529 13.7221 16.9163 13.8591C16.7798 13.9962 16.7115 14.1651 16.7115 14.3657V19.3457C16.7115 19.5472 16.7798 19.7163 16.9163 19.8529C17.0529 19.9895 17.2218 20.0576 17.4229 20.0571Z" fill="white"/>
</svg>
